<svg xmlns="http://www.w3.org/2000/svg" xmlns:xlink="http://www.w3.org/1999/xlink" width="177.602" height="68.986" viewBox="0 0 177.602 68.986"><defs><linearGradient id="a" x1="0.5" y1="1" x2="0.5" gradientUnits="objectBoundingBox"><stop offset="0" stop-color="#24d6fe"/><stop offset="1" stop-color="#b1eff9"/></linearGradient></defs><g transform="translate(-330.469 -751.952)"><rect width="176.102" height="68.986" rx="28.412" transform="translate(331.219 751.952)" fill="#0b96bc"/><rect width="176.102" height="63.927" rx="28.412" transform="translate(331.219 752.997)" fill="#0fb5ea" stroke="#45e8ff" stroke-miterlimit="10" stroke-width="1.5"/><rect width="166.103" height="55.899" rx="27.95" transform="translate(336.219 754.669)" fill="#24d6fe"/><ellipse cx="76.499" cy="16.079" rx="76.499" ry="16.079" transform="translate(341.649 754.286)" fill="url(#a)"/><ellipse cx="1.806" cy="7.383" rx="1.806" ry="7.383" transform="translate(461.016 762.839) rotate(-79.951)" fill="#fffdf3" opacity="0.56"/><ellipse cx="12.521" cy="3.303" rx="12.521" ry="3.303" transform="translate(348.062 803.963)" fill="#fffdf3" opacity="0.33"/><ellipse cx="6.161" cy="1.625" rx="6.161" ry="1.625" transform="translate(351.958 807.318)" fill="#fffdf3" opacity="0.44"/><path d="M13.286-6.916q-1.716.572-4.446,1.3V-.234A2.3,2.3,0,0,1,6.214,2.34H3.3L2.756-.026a23.169,23.169,0,0,0,2.6.156.873.873,0,0,0,.988-.988V-5.044q-2.626.572-4.81.91L1.2-6.6q2.7-.442,5.148-.936v-4.654H1.2V-14.56H6.344v-2.756q-1.456.286-4,.676l-.52-2.34a36.019,36.019,0,0,0,9.672-2.288l.858,2.314q-1.664.572-3.51,1.092v3.3h5.616q-.234-3.042-.234-6.708h2.5q0,3.822.234,6.708H24.8v2.366H17.16a25.4,25.4,0,0,0,.7,4.29q.13.572.364,1.352a21.93,21.93,0,0,0,2.938-4.6L23.3-10.036a24.925,24.925,0,0,1-4.16,6.162,15.58,15.58,0,0,0,.91,1.768Q21.216-.338,21.84-.338q.52,0,1.014-4.056L25.038-3.25q-.988,5.564-2.86,5.564-1.664,0-3.51-2.314a10,10,0,0,1-1.326-2.158A21.225,21.225,0,0,1,11.31,1.4L9.932-.728a18.881,18.881,0,0,0,6.4-3.822,24.859,24.859,0,0,1-.806-2.678,35.25,35.25,0,0,1-.858-4.966H8.84v4.082q2.34-.624,4.446-1.326Zm6.292-14.118a33.561,33.561,0,0,1,4.706,3.51L22.49-15.756a27.951,27.951,0,0,0-4.576-3.692Zm7.852.6H50.57v2.21H43.108v1.9h5.9v6.89H38.35q-.52.858-1.04,1.82H50.882V-5.33H45.448a9.279,9.279,0,0,1-2.522,3.562Q46.514-.676,50.544.858L49.01,2.886q-4.082-1.742-8.32-3.12Q37,1.664,28.678,2.782L27.742.6a49.654,49.654,0,0,0,9.7-1.846q-2.808-.832-6.006-1.586Q32.578-4.5,33.1-5.33H27.092V-7.618H34.5l1.066-1.82H28.99v-6.89h5.9v-1.9H27.43ZM40.248-2.548A6.88,6.88,0,0,0,42.874-5.33H35.932L34.918-3.822Q37.674-3.25,40.248-2.548Zm.494-13.78v-1.9H37.258v1.9Zm5.9,4.784v-2.678H43.108v2.678Zm-5.9,0v-2.678H37.258v2.678Zm-5.85,0v-2.678H31.356v2.678Zm30.342-9.75H67.6V2.678H65.234V-2.86H60.4V-5.1h4.836V-9.074h-3.38V-11.31h3.38v-3.8H61.36v-2.236h3.874ZM53.638,2.444,53.092.052a19.976,19.976,0,0,0,2.054.13q1.066,0,1.066-.806V-6.162q-1.664.624-2.522.884l-.6-2.5a25.437,25.437,0,0,0,3.12-.884V-14.17h-2.6v-2.366h2.6v-4.706H58.6v4.706H60.71v2.366H58.6v4.55q1.508-.728,2.236-1.118v2.522Q59.618-7.592,58.6-7.15V-.026q0,2.47-2.6,2.47ZM70.122-21.294h2.392v3.952h4.238v2.236H72.514v3.8h3.614v2.236H72.514V-5.1h4.42V-2.86h-4.42V2.678H70.122Zm9.828.858h8.32v1.95q-1.326,3.8-2.7,7.072a13.174,13.174,0,0,1,2.626,6.24,3.587,3.587,0,0,1-.78,2.6,6.232,6.232,0,0,1-3.926,1.04l-.832-2.5a10.553,10.553,0,0,0,1.326.13,2.958,2.958,0,0,0,1.43-.338,1.083,1.083,0,0,0,.39-.936q0-2.6-2.678-5.876A61.029,61.029,0,0,0,85.878-18.1H82.342V2.7H79.95Zm15.938-.7q0,3.848-.312,7.1Q97.76-4.992,103.168.338L101.374,2.47a31.988,31.988,0,0,1-6.6-11.31.745.745,0,0,0-.078.338A18.75,18.75,0,0,1,87.75,2.548L86.138.6a18.006,18.006,0,0,0,6.136-9.464,55.206,55.206,0,0,0,1.2-12.272Z" transform="translate(366.012 793.759)" fill="#03556b"/></g></svg>